<svg xmlns="http://www.w3.org/2000/svg" width="32" height="32" viewBox="0 0 32 32">
    <defs>
        <style>
            .cls-1{fill:#00ae46}.cls-2{fill:none}
        </style>
    </defs>
    <g id="Group_6286" data-name="Group 6286" transform="translate(-301 -136)">
        <g id="Group_6285" data-name="Group 6285">
            <g id="Group_5709" data-name="Group 5709" transform="translate(307 142)">
                <path id="Path_21267" d="M177.659 132.7l3.037-3.037-4.972-4.972-3.037 3.037zm2.124-3.037l-2.124 2.125-4.06-4.06 2.125-2.124z" class="cls-1" data-name="Path 21267" transform="translate(-165.724 -119.66)"/>
                <path id="Path_21268" d="M20 2.317l-1-.205-.083-1.024L17.89 1l-.209-1h-1.363l-2.936 2.936a2.652 2.652 0 0 0-3.649.1L5.547 7.222a4.529 4.529 0 0 0-1.008 1.529 3.884 3.884 0 0 1-.865 1.312L.551 13.186a1.88 1.88 0 0 0 0 2.659l3.6 3.6a1.88 1.88 0 0 0 2.659 0l3.124-3.123a3.883 3.883 0 0 1 1.312-.865 4.528 4.528 0 0 0 1.529-1.009l4.185-4.185a2.652 2.652 0 0 0 .1-3.649L20 3.682zm-8.387.583a2 2 0 0 1 1.313.489l-1.191 1.194-1.3-1.3a2 2 0 0 1 1.178-.383zm-7 16.09l-3.6-3.6a1.227 1.227 0 0 1-.035-1.7l5.342 5.342a1.264 1.264 0 0 1-1.709-.039zm7.711-5a3.888 3.888 0 0 1-1.312.865 4.532 4.532 0 0 0-1.531 1.015l-2.707 2.706-5.35-5.35 2.706-2.707a4.529 4.529 0 0 0 1.008-1.528A3.882 3.882 0 0 1 6 7.678l3.961-3.957 6.318 6.318zM17.1 8.387a2 2 0 0 1-.381 1.176l-1.3-1.3 1.191-1.191a2 2 0 0 1 .49 1.315zm2.258-4.972l-4.397 4.394-2.77-2.77L16.585.645h.572l.2.962.961.079.078.961.959.2z" class="cls-1" data-name="Path 21268"/>
                <path id="Rectangle_2651" d="M0 0h.645v2.281H0z" class="cls-1" data-name="Rectangle 2651" transform="rotate(-45 12.776 -13.545)"/>
                <path id="Rectangle_2652" d="M0 0h.645v2.281H0z" class="cls-1" data-name="Rectangle 2652" transform="rotate(-45 12.092 -15.198)"/>
                <path id="Rectangle_2653" d="M0 0h.645v2.281H0z" class="cls-1" data-name="Rectangle 2653" transform="rotate(-45 11.407 -16.85)"/>
                <path id="Rectangle_2654" d="M0 0h.645v2.281H0z" class="cls-1" data-name="Rectangle 2654" transform="rotate(-45 10.724 -18.5)"/>
                <path id="Path_21269" d="M224.968 304a.968.968 0 1 0 .968.968.969.969 0 0 0-.968-.968zm0 1.29a.323.323 0 1 1 .323-.323.323.323 0 0 1-.323.323z" class="cls-1" data-name="Path 21269" transform="translate(-214.968 -291.742)"/>
                <path id="Path_21270" d="M184.968 344a.968.968 0 1 0 .968.968.969.969 0 0 0-.968-.968zm0 1.29a.323.323 0 1 1 .323-.323.323.323 0 0 1-.323.323z" class="cls-1" data-name="Path 21270" transform="translate(-176.581 -330.129)"/>
                <path id="Path_21271" d="M144.968 384a.968.968 0 1 0 .968.968.969.969 0 0 0-.968-.968zm0 1.29a.323.323 0 1 1 .323-.323.323.323 0 0 1-.323.323z" class="cls-1" data-name="Path 21271" transform="translate(-138.194 -368.516)"/>
                <path id="Path_21272" d="M185.935 264.968a.968.968 0 1 0-.968.968.969.969 0 0 0 .968-.968zm-1.29 0a.323.323 0 1 1 .323.323.323.323 0 0 1-.323-.323z" class="cls-1" data-name="Path 21272" transform="translate(-176.581 -253.355)"/>
                <path id="Path_21273" d="M144.968 304a.968.968 0 1 0 .968.968.969.969 0 0 0-.968-.968zm0 1.29a.323.323 0 1 1 .323-.323.323.323 0 0 1-.323.323z" class="cls-1" data-name="Path 21273" transform="translate(-138.194 -291.742)"/>
                <path id="Path_21274" d="M105.935 344.968a.968.968 0 1 0-.968.968.969.969 0 0 0 .968-.968zm-.968.323a.323.323 0 1 1 .323-.323.323.323 0 0 1-.322.322z" class="cls-1" data-name="Path 21274" transform="translate(-99.806 -330.129)"/>
                <path id="Path_21275" d="M144.968 225.936a.968.968 0 1 0-.968-.968.969.969 0 0 0 .968.968zm0-1.29a.323.323 0 1 1-.323.323.323.323 0 0 1 .323-.324z" class="cls-1" data-name="Path 21275" transform="translate(-138.194 -214.968)"/>
                <path id="Path_21276" d="M104.968 265.935a.968.968 0 1 0-.968-.968.969.969 0 0 0 .968.968zm0-1.29a.323.323 0 1 1-.323.323.323.323 0 0 1 .323-.323z" class="cls-1" data-name="Path 21276" transform="translate(-99.806 -253.355)"/>
                <path id="Path_21277" d="M65.935 304.968a.968.968 0 1 0-.968.968.969.969 0 0 0 .968-.968zm-.968.323a.323.323 0 1 1 .323-.323.323.323 0 0 1-.322.322z" class="cls-1" data-name="Path 21277" transform="translate(-61.419 -291.742)"/>
            </g>
            <path id="Rectangle_2890" d="M0 0h32v32H0z" class="cls-2" data-name="Rectangle 2890" transform="translate(301 136)"/>
        </g>
    </g>
</svg>
