<svg xmlns="http://www.w3.org/2000/svg" id="Group_3915" width="32" height="32" data-name="Group 3915" viewBox="0 0 32 32">
    <defs>
        <style>
            .cls-1{fill:#283489;fill-rule:evenodd}
        </style>
    </defs>
    <path id="Path_7960" d="M202.552 225.207a16.028 16.028 0 0 1 11.41 4.134 15.765 15.765 0 0 1 3.392 4.236 13.353 13.353 0 0 1 1.5 4.456q-4.416-.06-8.831-.127c-.755 1.629-1.5 3.262-2.257 4.891h-4.4c.707-1.567 1.421-3.131 2.128-4.7l-7.555-.191c-.811 1.653-1.63 3.3-2.439 4.955h-7.972a.708.708 0 0 1-.223-.027c-.046-.065-.018-.156-.027-.231.005-.5 0-1 0-1.5a9.076 9.076 0 0 0 4.131.16 8.462 8.462 0 0 0 4.805-2.8 8.285 8.285 0 0 0 1.952-4.776 9.609 9.609 0 0 0-.675-4.2 13.317 13.317 0 0 0-1.387-2.6c.483-.283.968-.561 1.45-.845a7.834 7.834 0 0 1 1.8 2.673 10.459 10.459 0 0 1 .652 2.476c2.5-.012 5-.042 7.5-.061a3.879 3.879 0 0 0-.612-2.339 3.649 3.649 0 0 0-1.894-1.362 7.018 7.018 0 0 0-1.7-.328 26.596 26.596 0 0 1-.748-1.894z" class="cls-1" data-name="Path 7960" transform="translate(-187.276 -225.183)"/>
    <path id="Path_7961" d="M195.189 240.133c.153-.088.244.1.341.187a7.273 7.273 0 0 1-3.376 12.091 8.561 8.561 0 0 1-3.983.048 1.618 1.618 0 0 1-.421-.123.862.862 0 0 1 0-.309q.095-.766.184-1.533a.431.431 0 0 1 .089-.269 1.19 1.19 0 0 1 .269.055 5.736 5.736 0 0 0 3.2.023 5.216 5.216 0 0 0 2.963-2.2 5.017 5.017 0 0 0 .752-3.225 6.514 6.514 0 0 0-1.36-3.243.938.938 0 0 1-.2-.32c.279-.252.594-.464.888-.7a7.349 7.349 0 0 1 .654-.482z" class="cls-1" data-name="Path 7961" transform="translate(-187.665 -237.804)"/>
    <path id="Path_7962" d="M194.516 255.747c.428-.487.893-.942 1.346-1.407a4.858 4.858 0 0 1 1.094 1.579 3.662 3.662 0 0 1 .162 2.519 3.8 3.8 0 0 1-1.868 2.221 4.164 4.164 0 0 1-3.593.115c.248-.575.519-1.142.777-1.713a1.978 1.978 0 0 0 1.623.151 1.946 1.946 0 0 0 1.2-1.932 2.365 2.365 0 0 0-.741-1.533z" class="cls-1" data-name="Path 7962" transform="translate(-190.98 -249.835)"/>
    <path id="Path_7963" d="M199.713 315.919c1.5.011 3 .016 4.5.029q-1.083 2.455-2.172 4.907 3.788.015 7.576.025c.808-1.628 1.422-3.349 2.234-4.975 2.712.018 5.425.074 8.137.1.065.568.119 1.138.2 1.705a9.39 9.39 0 0 0-5.644.328 8.465 8.465 0 0 0-4.274 3.7 8.371 8.371 0 0 0-1 5.281 10 10 0 0 0 2 4.652 2.2 2.2 0 0 1 .15.237 6.375 6.375 0 0 0-1.252.809c-.089.084-.187-.016-.247-.085a10.433 10.433 0 0 1-1.673-2.534 8.7 8.7 0 0 1-.668-2.383h-7.6a4.713 4.713 0 0 0 .956 2.651 3.688 3.688 0 0 0 2.03 1.122 11.044 11.044 0 0 0 1.195.2c.3.631.6 1.261.895 1.9a15.379 15.379 0 0 1-6.215-.859 16.93 16.93 0 0 1-8.584-7.034 13.9 13.9 0 0 1-1.895-4.816h9.081q1.128-2.479 2.27-4.96z" class="cls-1" data-name="Path 7963" transform="translate(-188.188 -301.623)"/>
    <path id="Path_7964" d="M342.083 334.853a9.549 9.549 0 0 1 3.141.21c.117.023.278.076.254.229a14.652 14.652 0 0 1-.2 1.691c-.007.087-.065.178-.162.127a6.811 6.811 0 0 0-3.312-.075 5.233 5.233 0 0 0-2.322 1.24 5.149 5.149 0 0 0-1.583 3.012 5.321 5.321 0 0 0 1.443 4.444.493.493 0 0 1 .126.168 1.257 1.257 0 0 1-.322.288l-1.2.9c-.067.053-.18.109-.242.02a7.427 7.427 0 0 1-2.043-4.565 7.256 7.256 0 0 1 2.022-5.593 7.172 7.172 0 0 1 4.4-2.096z" class="cls-1" data-name="Path 7964" transform="translate(-313.595 -317.602)"/>
    <path id="Path_7965" d="M361.193 357.374a4.112 4.112 0 0 1 3.055.084 2.616 2.616 0 0 1-.244.626c-.162.347-.315.7-.479 1.044-.04.067-.088.186-.188.147a2.506 2.506 0 0 0-1.624-.077 1.549 1.549 0 0 0-.926.912 2.337 2.337 0 0 0 .573 2.5c-.03.227-.277.341-.414.507-.267.257-.523.528-.8.776a.121.121 0 0 1-.19-.008 4.385 4.385 0 0 1-1.275-2.017 3.489 3.489 0 0 1 .192-2.355 4.116 4.116 0 0 1 2.32-2.139z" class="cls-1" data-name="Path 7965" transform="translate(-332.979 -336.471)"/>
</svg>
