<svg xmlns="http://www.w3.org/2000/svg" width="32" height="32" viewBox="0 0 32 32">
    <defs>
        <style>
            .cls-1,.cls-2,.cls-3{fill:#ed1b24;fill-rule:evenodd}.cls-2,.cls-3{fill:#14489d}.cls-2{stroke:#373435;stroke-miterlimit:2.613;stroke-width:.5px}.cls-4{fill:none}
        </style>
    </defs>
    <g id="Group_6287" data-name="Group 6287" transform="translate(-150 -136)">
        <g id="Group_5669" data-name="Group 5669" transform="translate(155 143)">
            <path id="Path_7956" d="M257.677 251.731H252.2c-1.573-2.132-.61-3.393.073-3.908a2.366 2.366 0 0 0 .788 1.79c-.309-1.463-.2-3.452 1-3.824a4.263 4.263 0 0 0 .268 2.072 2.893 2.893 0 0 0 .837 1.14c-.283-1.134-1.024-3.16.223-4.6.417 2.429 4.969 4.175 2.288 7.33z" class="cls-1" data-name="Path 7956" transform="translate(-243.925 -244.402)"/>
            <path id="Path_7957" d="M261.755 374.932h-6.6v-.642h6.6z" class="cls-2" data-name="Path 7957" transform="translate(-247.478 -366.524)"/>
            <path id="Path_7958" d="M273.441 399.742v-.5l4.3.012v.479h-.533a4.608 4.608 0 0 0-1.663 2.732 4.946 4.946 0 0 0-1.722-2.732z" class="cls-3" data-name="Path 7958" transform="translate(-264.61 -390.077)"/>
            <path id="Path_7959" d="M127.747 415.821a3.129 3.129 0 0 0 1.091.147c1.777-.652.234-3.5-1.989-1.81a2.354 2.354 0 1 0 3.977 2.27 6.126 6.126 0 0 0 2.608.377 1.214 1.214 0 0 1 .4.972c.617-.314.566-1.094-.1-1.531.3-.685.579-2.315-.909-2.31.157 1.118-.281 1.392-.977 1.38-.663-.012-1.154-.669-1.384-1.514-.539-4.147 5.228-4.008 4.764.059.133.148.208.215.341.364a2.322 2.322 0 0 0 1.609 3.978 2.346 2.346 0 0 0 1.476-3.96l.338-.374c-.289-2.774 1.944-3.479 3.184-2.976a2.564 2.564 0 0 1 .7 4.328 1.21 1.21 0 0 1-1.278-.153 1.142 1.142 0 0 1-.193-1.133c-.55-.2-1.709.63-.919 2.281-.575.311-.775 1.356-.108 1.571a1.3 1.3 0 0 1 .432-1 6.142 6.142 0 0 0 2.6-.338 2.342 2.342 0 0 0 4.583-.541c.122-2.705-3.347-3.007-3.395-.979.039 1.061 1.065 1.292 1.874.859.119 1.419-1.258 1.275-1.86.747a2.012 2.012 0 0 1 .554-3.307c0-4.384-6.97-5.558-7.436-.063-.282.514-.76.79-1.226.058a3.7 3.7 0 1 0-7.406-.006 2.877 2.877 0 0 1 .987 1.038 1.773 1.773 0 0 1-1.523 2.634.9.9 0 0 1-.808-1.071zm9.343-.881a1.037 1.037 0 1 1-.991 1.036 1.015 1.015 0 0 1 .991-1.036z" class="cls-3" data-name="Path 7959" transform="translate(-126.191 -400.04)"/>
        </g>
        <path id="Rectangle_2891" d="M0 0h32v32H0z" class="cls-4" data-name="Rectangle 2891" transform="translate(150 136)"/>
    </g>
</svg>
