<svg xmlns="http://www.w3.org/2000/svg" id="Group_4015" width="32" height="32" data-name="Group 4015" viewBox="0 0 32 32">
    <defs>
        <style>
            .cls-1{fill:#00368e}.cls-2{fill:#0297f1}.cls-3{fill:#373536}
        </style>
    </defs>
    <path id="Path_8009" d="M30.682 7.258a.338.338 0 0 0-.2-.19.326.326 0 0 0-.269.023l-3 1.668a.341.341 0 0 0-.151.414 12.193 12.193 0 0 1 .763 4.227 12.064 12.064 0 0 1-11.949 12.143A12.065 12.065 0 0 1 3.92 13.4a12.222 12.222 0 0 1 .712-4.088.339.339 0 0 0-.152-.412L1.486 7.234a.325.325 0 0 0-.272-.022.334.334 0 0 0-.2.191 16.376 16.376 0 0 0-1.142 6 16.146 16.146 0 0 0 16 16.252 16.146 16.146 0 0 0 16-16.252 16.34 16.34 0 0 0-1.19-6.145z" class="cls-1" data-name="Path 8009" transform="translate(.124 2.349)"/>
    <path id="Path_8010" d="M25.059 14.163a3.887 3.887 0 0 1-2.623-1.631 3.75 3.75 0 0 1-.512-2.732c.074-.4.111-.769.111-.769a3.45 3.45 0 0 0-2.5.179 60.3 60.3 0 0 0-7.787 3.859 26.143 26.143 0 0 1-4.725 1.845 20.841 20.841 0 0 1-2.955.611 6.6 6.6 0 0 0 .732 2.09 7.728 7.728 0 0 0 .925 1.348 63 63 0 0 0 6.53-1.847 34.9 34.9 0 0 0 6.372-3.316 11.32 11.32 0 0 0 1.822 2.371 8.228 8.228 0 0 0 2.439 1.445c.746.256.876.2.876.2a3.731 3.731 0 0 0 .908-1.677 6.617 6.617 0 0 0 .387-1.976z" class="cls-2" data-name="Path 8010" transform="translate(1.521 3.094)"/>
    <path id="Path_8011" d="M5.935 18.264a29.376 29.376 0 0 0 5.924-1.748C15.519 14.888 17.6 13.7 17.6 13.7a12.283 12.283 0 0 0 2.52 2.235 23.849 23.849 0 0 0 2.632 1.429 5.251 5.251 0 0 1-1.308 1.751 14.417 14.417 0 0 1-1.288.991 20.03 20.03 0 0 1-1.868-1.089l-1.352-.923s-2.253 1.073-4.189 1.733-3.72 1.156-3.72 1.156A5.751 5.751 0 0 1 7.36 19.9a11.131 11.131 0 0 1-1.425-1.636z" class="cls-2" data-name="Path 8011" transform="translate(2.057 4.741)"/>
    <path id="Path_8012" d="M18.129 19.294s-.911-.455-1.579-.851-.991-.629-.991-.629a8.668 8.668 0 0 1-2.791 1.213c-1.963.559-3.468 1.02-3.468 1.02a12.358 12.358 0 0 0 4.413.585 9.222 9.222 0 0 0 4.416-1.338z" class="cls-2" data-name="Path 8012" transform="translate(3.177 6.131)"/>
    <g id="Group_3912" data-name="Group 3912" transform="translate(3.228)">
        <path id="Path_7918" d="M5.472 3.382a.487.487 0 0 0-.477-.125c.02.1.044.187.053.277.013.133.077.16.2.165.244.012.275.061.2.307-.049.171-.117.335-.176.5-.013.039-.023.084.021.113a.093.093 0 0 0 .117-.011c.133-.113.267-.231.411-.34.057-.045.039-.108.06-.16v-.1a1.326 1.326 0 0 0-.409-.626z" class="cls-3" data-name="Path 7918" transform="translate(-1.398 1.079)"/>
        <path id="Path_7920" d="M14.607.35a.533.533 0 0 0-.347.55.04.04 0 0 1 0 .045 3.211 3.211 0 0 0 .015.965c.049.112.119.061.177.012a.706.706 0 0 0 .159-.257 3.083 3.083 0 0 0 .24-1.157c.004-.198-.059-.243-.244-.158z" class="cls-3" data-name="Path 7920" transform="translate(1.577 .103)"/>
        <path id="Path_7921" d="M10.96 1.076a.329.329 0 0 1-.023-.2c0-.177-.037-.351-.052-.525-.009-.109-.039-.236-.161-.267s-.165.1-.229.169a.894.894 0 0 0-.133.267v.013l-.008.011c.1.3.193.607.291.909a1.523 1.523 0 0 0 .091.235c.043.079.107.069.153 0s.008-.153.071-.211a.609.609 0 0 0 0-.401z" class="cls-3" data-name="Path 7921" transform="translate(.318 .026)"/>
        <path id="Path_7923" d="M10.208.88c-.015.029-.031.059-.043.088-.068.183-.157.361.113.475.1.041.095.147.017.235a3.21 3.21 0 0 1-.533.463c-.037.012-.041.028 0 .049a.026.026 0 0 1 .009.035c.177.073.347-.021.521-.025a.3.3 0 0 0 .292-.233.924.924 0 0 0 .056-.267.771.771 0 0 0-.432-.82z" class="cls-3" data-name="Path 7923" transform="translate(.116 .293)"/>
        <path id="Path_7924" d="M11.644.08a.024.024 0 0 1-.009-.033c-.089-.1-.143-.007-.2.04a.962.962 0 0 0-.152.251.192.192 0 0 0-.1.252v.007c.133.289.112.613.22.905.041.111.091.251.239.208s.157-.172.143-.3c-.019-.161.008-.321 0-.477a1.374 1.374 0 0 0-.141-.853z" class="cls-3" data-name="Path 7924" transform="translate(.582)"/>
        <path id="Path_7925" d="M9.058.717c.053-.075.133-.133.177-.211s.125-.148.024-.237A.078.078 0 0 0 9.152.24a1.454 1.454 0 0 1-.6.177.287.287 0 0 0-.301.283.215.215 0 0 0 0 .029v.127c.036.016.075.091.1.051.1-.164.257-.127.4-.148L8.8.81a.3.3 0 0 0-.107.415c.071.171.111.353.167.533.031.1.065.191.105.284.029.067.057.163.148.144S9.2 2.074 9.218 2s-.024-.155.039-.217A6.8 6.8 0 0 0 9.011.754a.261.261 0 0 0 .047-.037z" class="cls-3" data-name="Path 7925" transform="translate(-.365 .076)"/>
        <path id="Path_7926" d="M2.79 5.008a2.333 2.333 0 0 1 .133.284c.045.117.1.121.215.072a.594.594 0 0 1 .416-.091c-.117.185-.189.387-.46.335-.067-.013-.073.064-.047.109a.582.582 0 0 0 .337.291.27.27 0 0 0 .241-.044.871.871 0 0 0 .275-.325.415.415 0 0 0-.081-.489.8.8 0 0 0-1.029-.142z" class="cls-3" data-name="Path 7926" transform="translate(-2.133 1.626)"/>
        <path id="Path_7928" d="M4.475 3.949a.687.687 0 0 0-.411-.1c-.4-.011-.437.045-.267.4.044.095.089.1.175.072a1.1 1.1 0 0 1 .417-.087c-.12.287-.181.332-.435.308-.088-.008-.112.035-.1.1a.412.412 0 0 0 .695.219 2.666 2.666 0 0 0 .216-.244.591.591 0 0 0-.29-.668z" class="cls-3" data-name="Path 7928" transform="translate(-1.829 1.281)"/>
        <path id="Path_7929" d="M3.912 4.7L3.4 4.283c-.116-.021-.191-.133-.324-.144.012.145.029.279.032.412a.237.237 0 0 0 .133.223c.216.119.427.245.641.368.081.047.163.092.248.133.053.025.12.052.168 0s.009-.111-.021-.161a1.621 1.621 0 0 0-.365-.414z" class="cls-3" data-name="Path 7929" transform="translate(-2.038 1.379)"/>
        <path id="Path_7930" d="M3.576 6.044c-.071 0-.185 0-.18.125 0 .079-.009.124-.089.152-.1.036-.063.123-.045.193a.068.068 0 0 0 .073.06l.02-.005c.065-.023.171 0 .155-.121s.016-.141.109-.16c.036-.007.045-.045.039-.089s.001-.152-.082-.155z" class="cls-3" data-name="Path 7930" transform="translate(-1.983 2.014)"/>
        <path id="Path_7932" d="M17.463 1.723a.606.606 0 0 0-.068.028c-.292.152-.292.152-.233.459-.085.027-.143-.04-.211-.063a.268.268 0 0 1-.2-.308 3.7 3.7 0 0 1 .025-.456c.031-.124-.008-.145-.133-.1l-.24.079a2.116 2.116 0 0 0-.02.431c0 .052 0 .1-.076.109a.329.329 0 0 1-.307-.21c-.013-.065 0-.155-.079-.167s-.113.065-.152.121a.827.827 0 0 0-.077.133.369.369 0 0 0 .136.5.377.377 0 0 0 .208.048.83.83 0 0 0 .349-.117c.059.323.308.417.579.491a.236.236 0 0 0 .171-.017.813.813 0 0 0 .328-.961z" class="cls-3" data-name="Path 7932" transform="translate(2.028 .42)"/>
        <path id="Path_7933" d="M17.071 1.542c.067-.008.177 0 .193-.1 0-.112-.1-.235-.153-.213s-.195 0-.169.133c.016.073.014.195.129.18z" class="cls-3" data-name="Path 7933" transform="translate(2.458 .408)"/>
        <path id="Path_7934" d="M21.218 6.485a.482.482 0 0 0 .484-.224 1 1 0 0 0 .112-.853v-.052c.043-.133-.037-.188-.153-.193a.792.792 0 0 0-.324.052c-.293.113-.292.115-.387-.2-.017-.056-.028-.113-.095-.133a.41.41 0 0 0-.493.245c-.051.193-.161.219-.323.133a1.213 1.213 0 0 0-.357-.125c-.092-.013-.212-.043-.219.117.152.473.391.605.892.493.051-.012.108-.033.145.008.133.152.351.227.413.439.047.16.123.283.305.293zm.191-.428c-.015.052-.023.119-.1.116-.055 0-.053-.053-.057-.095-.008-.088.063-.091.117-.1s.046.039.039.079zm-.144-.5c.073 0 .1.056.108.117a.077.077 0 0 1-.063.091.121.121 0 0 1-.1-.121c-.01-.044.001-.087.054-.087z" class="cls-3" data-name="Path 7934" transform="translate(3.26 1.621)"/>
        <path id="Path_7935" d="M5.816 3.054a4.853 4.853 0 0 0-.691-.769c-.1.168-.053.355-.1.521a.154.154 0 0 0 .045.085q.4.382.816.76A.108.108 0 0 0 6 3.689c.061-.027.04-.085.036-.133a1.3 1.3 0 0 0-.22-.502z" class="cls-3" data-name="Path 7935" transform="translate(-1.388 .761)"/>
        <path id="Path_7937" d="M6.053 1.834c.055.013.133.053.16-.012.039-.119.117-.117.215-.124.069 0 .068-.088.089-.141s-.008-.06-.039-.083c-.2-.149-.248.187-.427.133-.041-.013-.051.093-.077.143a.093.093 0 0 0 .079.084z" class="cls-3" data-name="Path 7937" transform="translate(-1.103 .478)"/>
        <path id="Path_7938" d="M9.932.784c.163.041.163.041.259-.195C10.1.565 10.046.4 9.916.541c-.092.088-.091.159.016.243z" class="cls-3" data-name="Path 7938" transform="translate(.155 .161)"/>
        <path id="Path_7939" d="M14.348.72a.28.28 0 0 0-.331-.041.871.871 0 0 0-.424.547.208.208 0 0 0 .133.285 2.594 2.594 0 0 0 .315.1c.019.009.031.031.019.039s.02.013-.013.019a1.215 1.215 0 0 1-.471 0 .516.516 0 0 1-.244-.06.267.267 0 0 1-.185-.328l.012-.036c.017-.081.065-.18-.029-.228s-.133.065-.191.123l-.02.016-.075.24a.533.533 0 0 0 .277.7.57.57 0 0 0 .105.033 1.692 1.692 0 0 0 .579.052.649.649 0 0 0 .616-.533c.033-.233-.013-.324-.241-.391-.1-.028-.213-.021-.288-.116a.292.292 0 0 1 .3-.064c.065.017.125.051.189.075s.1 0 .112-.06a.354.354 0 0 0-.145-.372z" class="cls-3" data-name="Path 7939" transform="translate(1.109 .214)"/>
        <path id="Path_7941" d="M8.407 1.14c-.084-.028-.12-.007-.133.087s.017.189-.051.267h-.008c-.032.019-.032.037 0 .055l.009-.007c.068.064.183.035.245.1-.019.092-.089.12-.145.145-.179.08-.361.148-.543.22-.159.063-.3.065-.389-.113-.044-.085-.109-.1-.185-.035l-.007.193c.06.057.045.143.08.211a.439.439 0 0 0 .439.288 1.522 1.522 0 0 0 .946-.451.646.646 0 0 0-.157-.9.589.589 0 0 0-.101-.06z" class="cls-3" data-name="Path 7941" transform="translate(-.707 .376)"/>
        <path id="Path_7942" d="M7.947 2.284c-.048.1 0 .133.076.169.149.06.171.043.24-.2-.22-.125-.244-.119-.316.031z" class="cls-3" data-name="Path 7942" transform="translate(-.468 .721)"/>
        <path id="Path_7943" d="M17.841 2.234c-.08 0-.117.056-.176.064-.053.095-.227.1-.2.255.071.068.049.164.076.247.016.047-.029.067-.073.072a.7.7 0 0 1-.357.051c-.107.068-.224.023-.336.032-.076 0-.133.024-.133.111.153.088.311.172.46.267a.281.281 0 0 0 .331-.021 1.134 1.134 0 0 0 .435-.579.546.546 0 0 0-.027-.499z" class="cls-3" data-name="Path 7943" transform="translate(2.356 .744)"/>
        <path id="Path_7944" d="M17.654 2.122c.073-.025.176-.033.133-.159a3.938 3.938 0 0 0-.051-.14 1.507 1.507 0 0 0-.172.019.1.1 0 0 0-.092.1.094.094 0 0 0 .013.045c.033.076.055.177.169.135z" class="cls-3" data-name="Path 7944" transform="translate(2.631 .607)"/>
        <path id="Path_7945" d="M12.374.722c-.088.067-.1.157-.152.225-.079.111-.044.2.04.289.16.176.152.207-.045.347a1.779 1.779 0 0 1-.151.095c-.088.051-.179.1-.267.148-.052.028-.115.052-.1.133s.083.071.133.073c.144 0 .289.008.433.015a.214.214 0 0 0 .179-.08c.256-.282.327-1-.07-1.245z" class="cls-3" data-name="Path 7945" transform="translate(.753 .24)"/>
        <path id="Path_7947" d="M3.332 5.954a.887.887 0 0 0-.827-.287c.115.411.115.411.436.363.011 0 .024.019.043.033a1 1 0 0 1-.463.513c-.089.044-.183.081-.141.217.009.031-.032.076-.045.116a.323.323 0 0 0 .133.436l.032.015c.223.123.453.232.684.341.047.023.109.068.157 0a.143.143 0 0 0-.029-.185.858.858 0 0 0-.3-.227c-.093-.045-.209-.072-.255-.209a1.522 1.522 0 0 1 .311.048A.328.328 0 0 0 3.377 7a.185.185 0 0 0 0-.257c-.133-.112-.057-.193 0-.3a.359.359 0 0 0-.045-.489zm-.255.884c-.077.083-.167.053-.3.015.124-.065.193-.133.295-.079a.04.04 0 0 1 .016.055l-.007.008z" class="cls-3" data-name="Path 7947" transform="translate(-2.297 1.884)"/>
        <path id="Path_7948" d="M15.837 1.295a.892.892 0 0 0-.267-.267c-.133-.08-.2-.08-.312.041a1.7 1.7 0 0 0-.277.4.362.362 0 0 0 .213.549.435.435 0 0 0 .533-.115.533.533 0 0 0 .112-.611zm-.288.341a.324.324 0 0 1-.267-.112.079.079 0 0 1 .051-.119.335.335 0 0 1 .255.175.058.058 0 0 1-.039.063z" class="cls-3" data-name="Path 7948" transform="translate(1.8 .324)"/>
        <path id="Path_7949" d="M6.636 1.771a.275.275 0 0 0-.346.129.576.576 0 0 0 .035.467c.063.133.181.133.3.133a.1.1 0 0 1 .1-.051.088.088 0 0 1 .1-.055.035.035 0 0 1 .039-.039c.025 0 .016.011.015.015 0 .024-.021.032-.044.033-.012.059-.056.079-.107.091a.156.156 0 0 1-.1.056.7.7 0 0 1-.533.157c-.048 0-.12-.028-.127.035a.829.829 0 0 0 .039.347c.029.085.1.072.164.089.231.061.257.108.175.335a.481.481 0 0 1-.112.22.353.353 0 0 1-.083.208c-.035.052-.059.109-.012.163s.107.012.153-.02c.077-.052.155-.1.231-.159a.447.447 0 0 0 .192-.581c-.02-.061-.081-.108-.069-.184.1-.056.2-.1.285-.168a.563.563 0 0 0 .269-.439.931.931 0 0 0-.564-.782zm-.029.4c-.035.02-.071.044-.111.013a.1.1 0 0 1 .063-.1c.041-.027.079-.029.1.019s-.027.047-.052.06z" class="cls-3" data-name="Path 7949" transform="translate(-1.108 .583)"/>
        <path id="Path_7951" d="M18.5 2.808l.276-.051a.015.015 0 0 1 0-.021c0-.075.031-.159-.052-.215a.412.412 0 0 0-.1-.016c-.2 0-.2.013-.163.2a.8.8 0 0 1 .039.103z" class="cls-3" data-name="Path 7951" transform="translate(2.918 .834)"/>
        <path id="Path_7952" d="M20.5 4.636c.072-.039.163-.047.207-.133a1.091 1.091 0 0 1-.239-.533l-.151-.307a.494.494 0 0 0-.584-.048.111.111 0 0 0-.072.14c.057.12.212.133.273.257l.012.016h-.016a1.1 1.1 0 0 0-.319-.221c-.145-.1-.3-.177-.2-.412.056-.133-.081-.1-.157-.089a.284.284 0 0 1-.412-.179c-.029-.077-.047-.159-.069-.239-.368.1-.377.111-.381.44 0 .116-.032.168-.159.169a3.763 3.763 0 0 1-.533-.039c-.085-.012-.169-.031-.233.051a.035.035 0 0 1 0 .036c.148.113.3.225.443.343a.231.231 0 0 0 .259.031 1.259 1.259 0 0 0 .388-.267c.12.084.219.188.372.171.039 0 .053.027.068.06a1 1 0 0 0 .869.6.659.659 0 0 1 .38.127.19.19 0 0 0 .254.026z" class="cls-3" data-name="Path 7952" transform="translate(2.596 .963)"/>
        <path id="Path_7953" d="M18.393 3.674a.163.163 0 0 0-.036 0c-.031.056-.143-.009-.152.085s-.031.188.092.2c.093.008.12.057.156.133s.133.053.2.028.051-.1.02-.153c-.067-.125-.253-.129-.28-.293z" class="cls-3" data-name="Path 7953" transform="translate(2.838 1.224)"/>
        <path id="Path_7954" d="M19.3 4.409c-.163.012-.133-.133-.2-.2a.269.269 0 0 0-.2 0l.009.2c.027.055.084.036.127.051.1.039.1.089.016.148 0-.117-.081-.1-.153-.089s-.049.071-.051.115 0 .081.009.121a.216.216 0 0 0 .192-.043.247.247 0 0 1 .211-.053c.056 0 .107-.012.105-.077s.013-.177-.065-.173z" class="cls-3" data-name="Path 7954" transform="translate(3.055 1.397)"/>
        <path id="Path_7955" d="M21.924 6.471a.689.689 0 0 0-.324.043c-.3.092-.364.22-.267.527a.19.19 0 0 1-.011.065.7.7 0 0 1-.241-.112l-.343-.219a.087.087 0 0 0-.1-.011.089.089 0 0 0-.023.115c.045.1.095.2.145.3.133.267.243.319.533.243a1.823 1.823 0 0 0 .656-.32.687.687 0 0 0 .181-.211.266.266 0 0 0-.212-.416zm-.153.407c-.045.023-.071-.024-.083-.063s-.023-.064 0-.089.061.017.079.044.047.085 0 .108z" class="cls-3" data-name="Path 7955" transform="translate(3.641 2.155)"/>
    </g>
</svg>
