<svg xmlns="http://www.w3.org/2000/svg" width="32" height="32" viewBox="0 0 32 32">
    <defs>
        <style>
            .cls-1{fill:#ef3289}.cls-2,.cls-4{fill:none}.cls-2{stroke:#011e2e;stroke-width:.5px}.cls-3{stroke:none}
        </style>
    </defs>
    <g id="Group_5674" data-name="Group 5674" transform="translate(-24 -136)">
        <g id="surface1" transform="translate(28.875 148.023)">
            <path id="Path_21239" d="M292.6 239.759h1.521v.761H292.6z" class="cls-1" data-name="Path 21239" transform="translate(-283.095 -236.337)"/>
            <path id="Path_21240" d="M75.492 155.79l-2.583-.369a13.036 13.036 0 0 0-1.464-.776 12.8 12.8 0 0 0-5.3-1.141H65.7a12.926 12.926 0 0 0-6.172 1.574l-1.3.711a8.985 8.985 0 0 0-4.348 1.179 1.736 1.736 0 0 0-.872 1.5v2.258a.38.38 0 0 0 .38.38h1.277a2.273 2.273 0 0 0 4.291 0H69.11a2.273 2.273 0 0 0 4.291 0h.136a.382.382 0 0 0 .141-.027l1.232-.494a1.438 1.438 0 0 0 .909-1.342v-3.08a.381.381 0 0 0-.327-.373zm-17.2 4.864a1.521 1.521 0 1 1 .031-.3 1.521 1.521 0 0 1-.023.3zm6.876-.3h-6.082a2.282 2.282 0 1 0-4.563 0h-.761v-1.878a.973.973 0 0 1 .489-.843 8.222 8.222 0 0 1 4.074-1.082h6.845zm0-4.563h-5.351l.073-.04a12.16 12.16 0 0 1 5.28-1.464zm.761-1.521h.215a12.035 12.035 0 0 1 4.474.857l-.664.664h-4.023zm6.814 6.389a1.521 1.521 0 1 1 .031-.3 1.521 1.521 0 0 1-.028.295zm2.313-3.727h-1.139v.761h1.141v1.559a.681.681 0 0 1-.43.635l-1.091.438c0-.035 0-.07-.007-.1s0-.076-.007-.114l-.018-.114c-.007-.038-.011-.076-.018-.111s-.019-.073-.029-.109-.017-.073-.029-.108-.025-.069-.038-.1-.025-.07-.038-.1l-.047-.1c-.016-.035-.032-.068-.049-.1s-.038-.06-.055-.091-.038-.065-.06-.1-.042-.056-.063-.084l-.069-.091c-.024-.03-.047-.052-.071-.076s-.05-.056-.076-.083-.052-.048-.078-.071-.054-.051-.083-.076-.058-.044-.087-.065-.058-.045-.088-.065-.065-.038-.1-.059-.059-.038-.09-.054l-.1-.05c-.031-.016-.062-.032-.095-.045l-.114-.042c-.038-.014-.063-.024-.1-.035s-.088-.023-.132-.034c-.029-.007-.057-.016-.086-.022-.047-.01-.095-.015-.142-.022-.028 0-.055-.01-.083-.013a2.313 2.313 0 0 0-.232-.012 2.284 2.284 0 0 0-2.282 2.282h-3.039v-3.8h4.183a.379.379 0 0 0 .269-.111l.986-.986a12.184 12.184 0 0 1 1.206.659.381.381 0 0 0 .147.054l2.336.333z" class="cls-1" data-name="Path 21240" transform="translate(-53.002 -153.505)"/>
        </g>
        <g id="Ellipse_1118" class="cls-2" data-name="Ellipse 1118" transform="translate(24 136)">
            <circle cx="16" cy="16" r="16" class="cls-3"/>
            <circle cx="16" cy="16" r="15.75" class="cls-4"/>
        </g>
    </g>
</svg>
