<svg xmlns="http://www.w3.org/2000/svg" width="32" height="32" viewBox="0 0 32 32">
    <defs>
        <style>
            .cls-1,.cls-2{fill:#f65c0e;fill-rule:evenodd}.cls-2{fill:#58dce1}.cls-3{fill:none}
        </style>
    </defs>
    <g id="Group_5671" data-name="Group 5671" transform="translate(-153 -136)">
        <g id="Group_5670" data-name="Group 5670" transform="translate(159 145)">
            <path id="Path_3777" d="M74.232 6.385a8.5 8.5 0 0 1 4.642-1.144 1.032 1.032 0 0 1 .7.584v.637a7 7 0 0 1-1.222 2.2 19.923 19.923 0 0 1-2.752 2.87c-.2.176-.457.326-.544.6-.135.043-.267.093-.4.143q.1.1.2.194l-.382-.051a21.173 21.173 0 0 0 1.75-1.759A11.38 11.38 0 0 0 77.6 8.937a5.55 5.55 0 0 0 .85-1.81.751.751 0 0 0-.312-.753 3.056 3.056 0 0 0-1.441.043 25.608 25.608 0 0 0-7.281 3.858 27.972 27.972 0 0 0-4.452 3.9 8.121 8.121 0 0 0-1.492 2.108 1.475 1.475 0 0 0-.088 1.014c.446.418 1.128.279 1.678.24a20.683 20.683 0 0 0 4.7-1.747 22.443 22.443 0 0 1-4.181 2.055 8.445 8.445 0 0 1-2.448.542 1.372 1.372 0 0 1-1.075-.449.937.937 0 0 1-.149-.731 5.493 5.493 0 0 1 .584-1.474c.057-.107.114-.214.174-.319.621-.739 1.215-1.5 1.9-2.18.665-.624 1.3-1.287 2.008-1.861a36.837 36.837 0 0 1 7.66-4.991zm0 0" class="cls-1" data-name="Path 3777" transform="translate(-58.606 -5.2)"/>
            <path id="Path_3780" d="M16.449 132.85a9.259 9.259 0 0 1 2.942.271c.427.141.948.37 1.034.866a1.789 1.789 0 0 1-.757 1.471 15.582 15.582 0 0 1-4.173 2.436 36.918 36.918 0 0 1-4.88 1.659 28.5 28.5 0 0 1-7.57 1.068 5.9 5.9 0 0 1-2.33-.4 2.323 2.323 0 0 1-.716-.6v-.553a6.327 6.327 0 0 1 2.643-2.355 5.522 5.522 0 0 1 1.413-.646c-.06.1-.117.207-.174.312A7.878 7.878 0 0 0 1.55 138.3c-.164.248-.3.632-.055.875a2.323 2.323 0 0 0 1.387.487 14.486 14.486 0 0 0 2.875-.091 33.014 33.014 0 0 0 7.853-1.917 18.718 18.718 0 0 0 4.278-2.151 2.873 2.873 0 0 0 .967-1.049.587.587 0 0 0-.247-.741 5.218 5.218 0 0 0-2.358-.538l-.2-.19c.131-.049.263-.1.4-.14zm0 0" class="cls-2" data-name="Path 3780" transform="translate(0 -125.776)"/>
        </g>
        <path id="Rectangle_2640" d="M0 0h32v32H0z" class="cls-3" data-name="Rectangle 2640" transform="translate(153 136)"/>
    </g>
</svg>
